<?xml version="1.0" standalone="no"?>
<!DOCTYPE svg PUBLIC "-//W3C//DTD SVG 20010904//EN"
 "http://www.w3.org/TR/2001/REC-SVG-20010904/DTD/svg10.dtd">
<svg version="1.0" xmlns="http://www.w3.org/2000/svg"
 width="612.000000pt" height="612.000000pt" viewBox="0 0 612.000000 612.000000"
 preserveAspectRatio="xMidYMid meet">
<metadata>
Created by potrace 1.16, written by Peter Selinger 2001-2019
</metadata>
<g transform="translate(0.000000,612.000000) scale(0.100000,-0.100000)"
fill="#000000" stroke="none">
<path d="M2920 5134 c-417 -38 -760 -165 -1099 -408 -97 -70 -291 -257 -379
-366 -446 -557 -578 -1308 -347 -1980 47 -137 158 -361 233 -475 263 -393 648
-687 1087 -828 211 -68 337 -88 597 -94 237 -6 358 6 552 53 97 23 122 31 261
82 466 172 907 585 1121 1049 293 633 253 1379 -104 1963 -327 534 -855 886
-1480 985 -95 15 -361 26 -442 19z m325 -252 c39 -7 84 -13 100 -16 145 -20
365 -108 432 -173 42 -41 103 -125 103 -142 0 -6 -20 -20 -45 -32 -40 -19 -58
-21 -167 -16 -68 2 -182 10 -255 18 -133 13 -160 12 -383 -21 -81 -12 -253
-52 -260 -62 -3 -3 -19 -10 -35 -14 -17 -3 -41 -12 -55 -19 -14 -7 -52 -21
-84 -31 -33 -9 -78 -29 -100 -44 -23 -15 -52 -31 -66 -35 -14 -4 -32 -13 -40
-20 -8 -7 -43 -27 -77 -44 -34 -17 -74 -42 -90 -57 -15 -14 -40 -32 -54 -40
-15 -7 -45 -30 -68 -51 -22 -21 -55 -49 -72 -63 -31 -24 -45 -37 -155 -141
-27 -25 -67 -67 -89 -94 -22 -26 -46 -53 -52 -61 -7 -7 -13 -17 -13 -23 0 -6
-9 -16 -20 -23 -11 -7 -20 -18 -20 -25 0 -7 -4 -13 -9 -13 -9 0 -30 -28 -94
-125 -27 -42 -54 -76 -97 -127 -21 -24 -31 -28 -53 -23 -26 7 -31 15 -28 42 1
6 -8 18 -20 27 -47 33 -33 223 27 374 14 37 30 72 34 77 4 6 24 44 45 85 61
119 192 305 284 401 81 87 191 175 341 277 99 66 150 93 240 130 106 43 184
64 425 112 55 11 384 5 470 -8z m-162 -630 c9 -26 47 -144 85 -262 39 -118 94
-288 122 -377 l52 -163 449 0 c247 0 449 -3 449 -7 0 -5 -29 -28 -63 -52 -34
-25 -109 -79 -167 -121 -58 -42 -148 -107 -200 -145 -102 -74 -282 -206 -289
-212 -3 -2 0 -18 6 -36 6 -17 52 -160 103 -317 50 -157 107 -332 125 -390 19
-57 32 -106 30 -108 -1 -2 -42 25 -90 60 -49 35 -104 75 -124 89 -20 14 -95
68 -167 121 -72 53 -179 130 -237 172 l-106 76 -87 -62 c-47 -35 -123 -90
-169 -123 -274 -200 -467 -336 -471 -333 -2 3 7 38 20 79 13 41 69 216 125
389 127 391 124 381 119 384 -33 26 -208 153 -253 184 -33 23 -103 73 -155
112 -123 91 -248 180 -282 202 -16 10 -28 22 -28 28 0 7 152 10 448 10 l448 0
21 63 c21 62 206 633 240 738 10 32 21 55 25 53 3 -2 13 -26 21 -52z m1320
-2310 c-6 -56 -190 -277 -260 -312 -15 -8 -56 -36 -90 -62 -51 -39 -257 -148
-338 -179 -151 -57 -321 -74 -313 -31 4 18 100 74 178 102 83 31 190 79 200
90 3 3 39 26 80 50 149 88 266 169 329 226 148 136 220 175 214 116z"/>
</g>
</svg>
